<?xml version="1.0" standalone="no"?>
<!DOCTYPE svg PUBLIC "-//W3C//DTD SVG 20010904//EN"
 "http://www.w3.org/TR/2001/REC-SVG-20010904/DTD/svg10.dtd">
<svg version="1.0" xmlns="http://www.w3.org/2000/svg"
 width="1024.000000pt" height="1024.000000pt" viewBox="0 0 1024.000000 1024.000000"
 preserveAspectRatio="xMidYMid meet">

<g transform="translate(0.000000,1024.000000) scale(0.100000,-0.100000)"
fill="#000000" stroke="none">
<path d="M3570 8409 c-120 -20 -244 -105 -307 -210 -50 -84 -63 -151 -63 -330
l0 -157 -282 -4 c-320 -5 -345 -10 -493 -83 -197 -97 -337 -264 -402 -480 -17
-57 -18 -173 -21 -2230 -2 -1507 1 -2191 8 -2240 26 -165 99 -307 225 -432 70
-69 98 -89 186 -132 186 -89 -65 -82 2729 -79 l2475 3 80 28 c259 91 432 273
507 534 l23 78 0 2205 0 2205 -23 75 c-43 137 -97 226 -197 325 -101 101 -195
157 -325 196 -68 20 -102 23 -362 26 l-288 5 0 143 c0 166 -10 225 -53 313
-82 169 -276 272 -457 243 -191 -31 -343 -182 -379 -376 -6 -32 -11 -119 -11
-192 l0 -133 -1025 0 -1025 0 0 165 c0 141 -3 175 -21 227 -55 165 -191 280
-361 308 -35 5 -67 9 -73 9 -5 -1 -35 -5 -65 -10z m3106 -383 l35 -35 -3 -406
-3 -407 -33 -29 c-35 -31 -94 -39 -133 -19 -47 26 -49 43 -49 470 l0 402 29
29 c24 24 38 29 76 29 40 0 52 -5 81 -34z m-2953 -16 l28 -31 -3 -405 -3 -406
-28 -24 c-42 -36 -109 -34 -148 5 -16 16 -29 40 -29 53 -5 256 2 783 10 798
31 58 126 63 173 10z m-523 -742 c1 -163 32 -255 120 -350 199 -218 520 -190
692 60 51 75 71 144 76 275 l4 117 1029 0 1029 0 0 -104 c0 -120 20 -197 69
-275 46 -71 122 -138 199 -174 63 -30 74 -32 177 -32 108 0 113 1 187 38 54
26 92 54 131 97 92 99 127 198 127 360 l0 90 248 0 c192 0 261 -4 307 -15 148
-39 265 -168 295 -325 5 -29 10 -178 10 -331 l0 -279 -2780 0 -2780 0 0 299
c0 270 2 305 20 363 39 126 140 228 266 268 51 16 93 19 317 19 l257 1 0 -102z
m4698 -2885 l-3 -1698 -23 -55 c-48 -113 -134 -198 -245 -244 l-52 -21 -2425
-3 c-1811 -2 -2439 0 -2480 8 -154 33 -285 160 -320 312 -6 27 -10 650 -10
1721 l0 1677 2780 0 2780 0 -2 -1697z"/>
<path d="M4385 5529 c-190 -29 -370 -131 -492 -279 -198 -238 -240 -578 -110
-886 110 -262 342 -509 1109 -1182 116 -102 216 -182 227 -182 35 0 774 661
993 889 210 218 310 366 374 555 38 110 38 112 39 271 0 140 -3 169 -23 235
-97 310 -334 522 -643 576 -157 27 -302 4 -458 -73 -78 -39 -111 -63 -189
-140 l-95 -92 -76 77 c-115 117 -217 178 -365 216 -75 20 -215 27 -291 15z"/>
</g>
</svg>
